<svg width="140" height="61" viewBox="0 0 140 61" fill="none" xmlns="http://www.w3.org/2000/svg">
<path d="M10.1781 54.3629C11.0467 53.4134 12.07 52.3406 12.6792 51.8356C12.5079 51.8211 12.2366 51.7873 11.9415 51.7414C11.3061 52.3309 10.4946 53.1887 9.76883 53.9787C8.84787 54.9887 8.08873 55.8681 8.08873 55.873C8.07683 55.8802 8.07207 55.8971 8.06018 55.9068C7.4581 56.0759 6.43719 56.361 5.75659 56.5471C4.74996 56.8298 3.84566 56.7621 3.84566 57.429C3.84566 57.429 2.80333 57.9968 3.04607 58.8424C3.04607 58.8424 5.13786 57.1463 6.92742 56.8588C6.92742 56.8588 5.83512 57.5812 5.93269 58.5597C5.93269 58.5597 7.40575 56.3224 9.1263 57.6802C9.1263 57.6802 8.36002 56.622 8.67891 56.0397C8.95734 55.7256 9.52609 55.0757 10.1781 54.3629ZM6.86555 27.9401C6.77512 27.9812 6.68231 27.9957 6.58474 27.9957C6.28013 27.9957 5.99456 27.8072 5.87082 27.5004C5.85892 27.4762 5.84464 27.4448 5.83988 27.4134L5.6138 27.4907C5.80418 28.0561 6.38008 28.3654 6.89648 28.1817C7.02737 28.1334 7.14398 28.0633 7.23441 27.9739C7.51997 27.7033 7.6342 27.2588 7.4938 26.8384L6.97264 27.0196C7.00595 27.0969 7.02737 27.1814 7.02737 27.2708C7.02737 27.3482 7.01309 27.4206 6.98453 27.4859L7.22251 27.6333C7.18205 27.6961 7.13208 27.7589 7.0702 27.8121C7.01309 27.8676 6.94408 27.9087 6.86555 27.9401ZM27.9381 26.2271L17.6529 28.7737C17.6529 28.7688 17.6529 28.7664 17.6529 28.7616L17.6553 28.7737L37.745 19.9476L21.1892 22.0061L30.0513 15.4342L20.5538 19.1986L21.9888 16.2775L15.1946 21.245L15.1375 21.1411L24.7683 0L9.10726 18.8216L9.00969 8.56034L3.26262 22.2767L2.96277 18.2321L0.130886 28.7519L0.135645 28.7495V28.7519C0.135645 28.7519 0.516403 28.4644 1.03043 28.3074C1.07088 28.2953 1.11372 28.2856 1.15417 28.2735C1.15893 28.2735 1.16369 28.2687 1.17083 28.2687C1.21129 28.259 1.25412 28.2494 1.29458 28.2421C1.29934 28.2421 1.30648 28.2373 1.31362 28.2373C1.35645 28.23 1.39691 28.2228 1.4445 28.2204C1.4445 28.2155 1.4445 28.2156 1.4445 28.2156C1.48972 28.2107 1.53255 28.2107 1.57301 28.2059C1.58491 28.2059 1.58967 28.2059 1.59918 28.2059C1.63964 28.2011 1.68485 28.2011 1.73245 28.2059C1.73483 28.2059 1.73721 28.2059 1.74911 28.2107C1.78718 28.2107 1.82764 28.2131 1.8681 28.2204C1.87523 28.2228 1.88237 28.2228 1.88951 28.2228C1.93473 28.2276 1.97518 28.2373 2.01564 28.247C2.02754 28.247 2.03706 28.2518 2.04182 28.2518C2.08465 28.2639 2.12987 28.276 2.17746 28.2905C3.14601 28.6456 3.9694 28.2905 3.9694 28.2905C3.9694 28.2905 4.88322 28.8848 4.88322 29.3825H4.88084C4.88084 29.385 4.88084 29.385 4.88084 29.385C4.88084 29.385 3.68146 29.4574 3.68146 28.9162C3.68146 28.9162 2.14652 28.3629 0 29.1699L4.52864 31.1463C4.52626 31.1246 4.28591 30.2693 4.54768 29.9721C4.63097 29.8682 4.77614 29.8344 5.00459 29.9117C5.08788 29.9407 5.14738 29.9334 5.18545 29.8972C5.53765 29.5275 3.829 26.3261 3.829 26.3261C3.829 26.3261 2.29645 26.1763 0.968554 27.5849C0.880503 27.6792 0.790073 27.7782 0.704403 27.887V27.8821C0.704403 27.887 0.704403 27.887 0.704403 27.887C0.840048 27.6478 1.27078 26.9519 1.98708 26.3479C2.41781 25.9806 2.95564 25.652 3.59579 25.4684C3.77189 25.0408 3.54819 25.3186 3.90991 25.0939C3.91229 25.0939 3.91229 25.0891 3.91229 25.0891C4.08125 23.9607 4.71188 21.0517 6.88458 18.5655C7.02975 18.4012 7.17967 18.2345 7.33911 18.0751C7.33911 18.0751 6.78226 19.1382 6.78226 19.8775C6.79891 19.8582 7.34863 19.0222 8.10777 18.2563V18.2539C8.10777 18.2539 8.09825 18.2659 8.08873 18.2877C7.94833 18.5945 6.91314 20.8391 7.02023 21.4939C7.02261 21.4987 7.02499 21.5035 7.02499 21.5084L9.11916 19.561C9.11916 19.561 9.11202 19.5658 9.10964 19.5682C9.04777 19.6528 7.14398 22.267 6.95598 23.1634C6.95598 23.1683 6.95598 23.1683 6.95598 23.1707L10.1258 20.8729L10.1234 20.8778C10.1139 20.8971 9.72361 21.4456 9.56179 21.7476C9.44518 21.965 9.42853 22.0375 9.42853 22.0593L9.43328 22.0762L11.1396 21.332C11.1396 21.332 11.0658 21.4214 10.9468 21.5543L10.3114 22.2091L10.1543 22.3782L9.00017 23.5621L8.97875 23.5887L8.10063 24.4947L7.53663 25.077C7.53663 25.077 7.07734 25.5651 7.02023 25.8163C6.9655 26.0652 7.22489 26.2174 7.22489 26.2174H7.22251C7.4581 26.3503 7.6461 26.5557 7.75795 26.8021C7.81982 26.9495 7.85314 27.1138 7.85314 27.2878C7.85314 27.6284 7.71511 27.9377 7.48666 28.16C7.26058 28.3847 6.94408 28.5248 6.59426 28.5248C6.27537 28.5248 5.99218 28.4088 5.77087 28.2204C5.80894 28.2735 6.43243 29.0684 7.57947 28.4499L8.99541 27.4013L9.05729 27.353L10.5208 26.2657C10.8659 26.6789 11.1919 27.179 11.487 27.742C10.6184 28.5804 9.13582 30.0349 7.65562 31.6271C6.77274 32.5718 5.89223 33.5721 5.14262 34.5168L5.67092 31.9992L5.71375 31.7914C5.71375 31.7914 5.71137 31.7914 5.71137 31.7963C5.70423 31.7987 5.70185 31.7987 5.69709 31.8011C5.69709 31.8035 5.68996 31.8083 5.68996 31.8083C5.6852 31.8108 5.67806 31.8108 5.67568 31.8204C5.6733 31.8204 5.66854 31.8228 5.66854 31.8277C5.6614 31.8301 5.65426 31.8349 5.6495 31.8373C5.64712 31.8397 5.64474 31.847 5.63522 31.8494C5.63046 31.8518 5.62094 31.8615 5.6138 31.8639C5.60904 31.8712 5.60429 31.8736 5.59715 31.8808C5.59001 31.8881 5.58763 31.8929 5.57573 31.8953C5.56859 31.9026 5.56145 31.9122 5.55431 31.9171C5.54717 31.9219 5.53765 31.934 5.52813 31.9364C5.52099 31.9485 5.51148 31.9581 5.50434 31.9606C5.49244 31.9678 5.48292 31.9775 5.4734 31.9871C5.46626 31.992 5.45674 32.004 5.4496 32.0113C5.4377 32.021 5.42342 32.0282 5.41629 32.0427C5.40201 32.0475 5.39725 32.0572 5.38297 32.0644C5.37583 32.0789 5.36155 32.0886 5.34727 32.1007C5.34013 32.1104 5.32586 32.12 5.31634 32.1297C5.30206 32.1418 5.2854 32.1563 5.27588 32.1708C5.26398 32.1804 5.25684 32.1901 5.24256 32.1973C5.23305 32.2142 5.21639 32.2312 5.19497 32.2457C5.18307 32.2553 5.17593 32.2626 5.16641 32.2722C5.15689 32.2819 5.14738 32.2916 5.13548 32.2988C5.13548 32.3036 5.1331 32.3036 5.1331 32.3036C5.11882 32.3181 5.09978 32.3375 5.08312 32.3568C5.06884 32.3665 5.05694 32.381 5.04743 32.3955C5.02839 32.41 5.01411 32.4269 4.99745 32.4438C4.98317 32.4583 4.96889 32.4728 4.957 32.4849C4.9451 32.5018 4.93082 32.5138 4.92368 32.5259C4.91892 32.5308 4.9094 32.538 4.90464 32.5453C4.90464 32.5477 4.89988 32.5525 4.89274 32.5573C4.88322 32.567 4.87371 32.5767 4.86181 32.5887C4.84753 32.6057 4.83563 32.6177 4.82135 32.6347C4.81897 32.6419 4.81659 32.6443 4.80945 32.6467C4.80469 32.6516 4.79993 32.6564 4.79279 32.6612C4.78565 32.6757 4.77614 32.6854 4.76424 32.6951C4.74758 32.7192 4.73092 32.7361 4.7095 32.7555C4.69522 32.7772 4.67857 32.7917 4.66429 32.8134C4.64763 32.8352 4.62621 32.8569 4.60955 32.8763C4.5929 32.898 4.57862 32.9149 4.56196 32.9342C4.54054 32.9584 4.52388 32.9826 4.50247 33.0067C4.48819 33.0261 4.47153 33.0454 4.45487 33.0671C4.43583 33.0937 4.4168 33.1155 4.39538 33.1445C4.37872 33.159 4.36444 33.1831 4.34778 33.2024C4.32637 33.2339 4.30495 33.2604 4.28115 33.2918C4.26449 33.3136 4.25021 33.3305 4.23831 33.3498C4.21214 33.3861 4.18358 33.4223 4.15502 33.4585C4.1455 33.473 4.13123 33.49 4.12409 33.502C4.08601 33.5552 4.04318 33.6108 4.00748 33.6688L4.00272 33.6736C3.96464 33.7292 3.92657 33.7823 3.89087 33.8379C3.88135 33.8548 3.86946 33.8717 3.85756 33.8886C3.83138 33.9297 3.80282 33.9732 3.77427 34.0167C3.75999 34.0384 3.74809 34.0578 3.73381 34.0795C3.70763 34.1206 3.68384 34.1592 3.65528 34.2003C3.641 34.2269 3.6291 34.2486 3.61482 34.2728C3.59341 34.3139 3.56485 34.3573 3.53867 34.4008C3.52677 34.4274 3.51011 34.4516 3.49822 34.4782C3.47204 34.5192 3.45062 34.5651 3.42206 34.6062C3.40779 34.628 3.39113 34.6594 3.37685 34.6835C3.35067 34.7318 3.32688 34.7753 3.3007 34.8212C3.2888 34.8478 3.27452 34.8744 3.26024 34.9034C3.14364 35.1208 3.02941 35.3455 2.91518 35.5896C2.91518 35.5944 2.91518 35.5944 2.91518 35.5944L2.33214 35.6935C2.44875 35.389 2.56298 35.1112 2.68911 34.8502L1.73959 36.2081L2.68911 36.1139C1.87761 38.0105 1.2803 40.4895 1.2803 44.0219L2.05371 43.5241C2.73432 47.4673 5.93745 49.1996 5.93745 49.1996L5.93269 49.1755C7.69608 50.3473 9.8426 51.1664 12.2081 51.4925C12.5365 51.5336 12.803 51.5602 12.8625 51.565C12.8649 51.565 12.8649 51.565 12.8649 51.5626C12.9077 51.5674 12.9458 51.5747 12.9862 51.5747C14.2665 51.6882 15.5111 51.6423 16.7034 51.466C16.701 51.5119 16.6962 51.5578 16.6962 51.6037C16.6962 52.3841 17.1246 53.0268 17.6696 53.0799C16.5511 55.0104 15.6444 57.5763 15.642 57.5884C15.5992 57.7068 15.5088 57.9243 15.4207 57.9895C15.1447 58.0523 15.1232 58.0668 14.8186 58.1635L14.8234 58.1586C14.7211 58.0572 13.8382 57.888 12.9363 58.2311C12.9386 58.236 12.9386 58.236 12.9434 58.2408C12.4341 58.4679 11.9391 58.8811 11.5941 59.5672C11.9606 59.2676 12.6436 58.7796 13.198 58.8472C12.5412 59.229 11.4037 59.9538 11.2728 61C11.2728 61 15.2208 58.1876 17.1651 58.7071C17.1651 58.7071 16.8819 59.0333 17.553 60.2486L17.8576 59.1203C18.2098 58.0233 16.8581 57.8615 16.2893 57.8397C16.2917 57.8325 16.2917 57.8276 16.2917 57.8252C16.2917 57.8252 16.3536 57.6488 16.4654 57.3589C16.801 56.4818 17.5815 54.5417 18.4358 53.1548C18.4501 53.1258 18.462 53.0944 18.4715 53.0654L18.3121 52.8432C18.3145 52.8432 18.4263 52.7175 18.4882 52.6233C18.6024 52.4421 18.7571 52.1328 18.7619 51.7245C18.7619 51.4056 18.6857 50.9996 18.4596 50.4995L18.9665 50.2627C18.9927 50.328 19.0213 50.3884 19.0474 50.4464C19.0546 50.4681 19.0617 50.4874 19.0688 50.5068C19.0831 50.5478 19.0998 50.5913 19.1141 50.6324C19.1212 50.6517 19.1283 50.6735 19.1379 50.6952C19.1521 50.7411 19.164 50.7822 19.1807 50.8257C19.1831 50.8378 19.1902 50.8547 19.195 50.8716L22.084 49.9849L21.4438 49.4485H21.4391L21.4105 49.4195L21.3962 49.4074L10.4709 39.3056C10.4732 39.3056 10.4756 39.3104 10.4756 39.3104L10.4732 39.3056C13.5098 40.806 17.0532 42.5504 23.062 45.3773C28.9828 48.1486 32.7309 49.7626 34.6657 50.5672C34.6823 50.5768 34.699 50.5841 34.7132 50.5913H34.7156C34.9964 50.7073 35.2368 50.8064 35.4415 50.8909C35.8555 51.0552 36.2434 51.2074 36.2648 51.2171C36.2982 51.1978 36.3362 51.1881 36.3695 51.1712L14.2808 35.7901L27.9381 26.2271ZM12.6531 30.9675L9.35951 33.5093L11.7226 28.2325V28.2276C12.0986 29.037 12.4127 29.9624 12.6555 30.9651H12.6531V30.9675ZM24.409 49.1634L24.4923 49.5645H24.4899L28.3379 51.8695L29.3112 52.4445L28.7782 51.0528C31.9528 52.0023 34.5395 52.0555 36.2577 51.234C36.2577 51.234 36.2553 51.234 36.2553 51.2364C33.2664 52.1328 25.844 49.5935 24.409 49.1634Z" fill="#DB0D15"/>
<path d="M3.68628 28.9232C3.68628 29.462 4.88566 29.392 4.88566 29.392C4.88566 28.8967 3.97422 28.2999 3.97422 28.2999C3.97422 28.2999 3.15084 28.6526 2.17752 28.2999C1.78724 28.1573 1.38031 28.2032 1.03287 28.3119C0.571199 28.6236 0.00244141 29.1842 0.00244141 29.1842C2.15135 28.3699 3.68628 28.9232 3.68628 28.9232ZM11.7227 28.2322L9.35957 33.509L12.6531 30.9649C12.4152 29.9622 12.0939 29.0416 11.7227 28.2322ZM36.2768 51.2289C36.2768 51.2289 28.8806 48.4117 10.4757 39.3198L21.4439 49.4627H21.4486C22.4315 49.0496 23.1216 48.7548 24.4899 49.5666L24.409 49.1656C25.8416 49.5932 33.2902 52.1446 36.2768 51.2289ZM18.4668 50.5113C18.6929 51.0115 18.7691 51.4174 18.7691 51.7363C18.7667 52.1446 18.6096 52.4539 18.4954 52.6351C18.4335 52.7269 18.3193 52.855 18.3193 52.855L18.6477 53.3116C18.6834 53.2875 19.3235 52.797 19.3235 51.7363C19.3235 51.3232 19.226 50.8351 18.9713 50.2721L18.4668 50.5113ZM11.8654 51.7291C12.3866 51.8136 12.8625 51.8571 12.8625 51.8571L12.8863 51.5769C12.8863 51.5769 12.4199 51.5358 11.9107 51.4512L11.8654 51.7291ZM11.4894 27.7538C11.1944 27.1884 10.8683 26.6907 10.5233 26.2776L7.58429 28.4642C6.3968 29.0996 5.77093 28.2298 5.77093 28.2298C5.98748 28.4183 6.27781 28.5367 6.59908 28.5367C7.29634 28.5367 7.85796 27.9785 7.86034 27.2972C7.86034 27.1256 7.82464 26.9613 7.76277 26.8164C7.6533 26.5651 7.46054 26.3597 7.22733 26.2292L7.23209 26.2268C7.23209 26.2268 6.97269 26.0746 7.02743 25.8258C7.08216 25.5745 7.54383 25.0864 7.54383 25.0864L7.54145 25.0888L8.98595 23.5981L9.00737 23.5715L10.3186 22.2185L10.954 21.5637C11.073 21.4332 11.1444 21.3462 11.1444 21.3462L9.43572 22.0856C9.43572 22.0856 9.40241 22.0663 9.56899 21.757C9.73557 21.4501 10.1354 20.8824 10.1354 20.8824L6.96318 23.1801C7.14642 22.2789 9.12874 19.5752 9.12874 19.5752L7.03457 21.5202C6.89416 20.8413 8.11735 18.2657 8.11735 18.2657C7.34631 19.0413 6.79183 19.8917 6.79183 19.8917C6.79183 19.1476 7.34631 18.0845 7.34631 18.0845C4.80475 20.6673 4.09797 23.8977 3.92187 25.0985C3.55301 25.3329 3.77909 25.0478 3.60299 25.4778C1.89671 25.9683 0.92816 27.5122 0.706844 27.8964C2.09185 26.1616 3.83382 26.3356 3.83382 26.3356C3.83382 26.3356 5.91371 30.24 5.00941 29.9259C4.09559 29.6046 4.53346 31.1581 4.53346 31.1581L2.82957 30.4116C3.11038 30.9769 3.66248 32.3058 3.34597 33.6878C2.99615 34.229 2.64871 34.8862 2.33934 35.7005L2.92238 35.6014C3.03661 35.3525 3.14846 35.1279 3.26268 34.9128C3.27934 34.8862 3.296 34.8572 3.3079 34.8307C3.3317 34.7848 3.35549 34.7413 3.38405 34.6954C3.39833 34.6688 3.41499 34.6398 3.42926 34.6132C3.45306 34.5721 3.47448 34.5286 3.50066 34.4876C3.51731 34.4586 3.53397 34.4344 3.54587 34.4078C3.57205 34.3668 3.59347 34.3233 3.62202 34.2846C3.63392 34.258 3.6482 34.2363 3.66248 34.2146C3.68866 34.1735 3.71483 34.13 3.74101 34.0889C3.75291 34.0672 3.76481 34.0454 3.78147 34.0237C3.80526 33.9826 3.83382 33.9391 3.86476 33.898C3.87666 33.8787 3.88379 33.8594 3.89807 33.8449C3.93377 33.7893 3.97184 33.7362 4.00992 33.683C4.00992 33.6806 4.01468 33.6758 4.01468 33.6758C4.05276 33.6178 4.09083 33.567 4.12653 33.5139C4.13843 33.5018 4.15032 33.4825 4.16222 33.468C4.19078 33.4293 4.21458 33.3955 4.24313 33.3568C4.25741 33.3375 4.26931 33.3206 4.28835 33.3037C4.30739 33.2747 4.32881 33.2433 4.3526 33.2119C4.37164 33.1925 4.38592 33.1732 4.4002 33.1539C4.42162 33.1273 4.44065 33.1007 4.46207 33.0766C4.47635 33.0572 4.49539 33.0379 4.50967 33.0186C4.53108 32.992 4.54774 32.9702 4.56678 32.9461C4.58582 32.9268 4.59772 32.9074 4.61437 32.8881C4.63341 32.8639 4.65245 32.8422 4.67149 32.8229C4.68577 32.8035 4.70242 32.7866 4.7167 32.7697C4.73574 32.7455 4.75478 32.7286 4.76906 32.7069C4.78572 32.6924 4.79999 32.6706 4.81665 32.6561C4.83331 32.6368 4.84997 32.6199 4.86901 32.6006C4.88328 32.5812 4.89518 32.5716 4.90946 32.5523C4.9285 32.5329 4.94516 32.516 4.96182 32.4967C4.97371 32.487 4.98799 32.4701 5.00227 32.4508C5.01655 32.4363 5.03321 32.417 5.05225 32.4025C5.06176 32.3904 5.07366 32.3783 5.08794 32.3638C5.1046 32.3469 5.12126 32.3251 5.13792 32.3106C5.15219 32.301 5.15933 32.2889 5.17123 32.2817C5.19979 32.2527 5.22121 32.2309 5.245 32.2043C5.25928 32.1971 5.26642 32.1874 5.27832 32.1778C5.29022 32.1633 5.3045 32.1488 5.31878 32.1367C5.32592 32.127 5.34257 32.1149 5.34971 32.1077C5.36399 32.0956 5.37827 32.0859 5.38541 32.0714C5.39969 32.0642 5.40445 32.0569 5.41873 32.0497C5.42586 32.0352 5.44014 32.028 5.45204 32.0183C5.45918 32.011 5.46632 31.999 5.47584 31.9941C5.48774 31.9869 5.49488 31.9772 5.50678 31.9676C5.51392 31.9651 5.52343 31.9555 5.53057 31.9434C5.54009 31.941 5.54723 31.9313 5.55675 31.9241C5.56627 31.9192 5.57103 31.912 5.57817 31.9023C5.59007 31.8999 5.59483 31.8927 5.59959 31.8878C5.60673 31.883 5.61148 31.8782 5.61624 31.8709C5.62338 31.8685 5.6329 31.8612 5.63766 31.8564C5.64718 31.854 5.64956 31.8467 5.65194 31.8443C5.6567 31.8395 5.66622 31.8371 5.67098 31.8347C5.67098 31.8298 5.67574 31.8274 5.67812 31.8274C5.6805 31.8202 5.68764 31.8202 5.6924 31.8153C5.6924 31.8153 5.69953 31.8105 5.69953 31.8081C5.70429 31.8033 5.70667 31.8033 5.71381 31.8033C5.71381 31.7984 5.71619 31.7984 5.71619 31.7984L5.67336 32.0062L5.14506 34.5238C7.14642 32.0086 10.0997 29.0875 11.4894 27.7538ZM5.61148 27.4905L5.83994 27.4131C5.8447 27.4446 5.85898 27.4736 5.87088 27.5001C5.99462 27.807 6.28019 27.9954 6.5848 27.9954C6.68237 27.9954 6.77518 27.9809 6.86561 27.9399C7.01791 27.877 7.13928 27.7659 7.22019 27.6354L6.98221 27.4905C7.01315 27.4252 7.02505 27.3503 7.02505 27.2706C7.02505 27.1812 7.00363 27.0966 6.97031 27.0193L7.49148 26.8381C7.67948 27.4011 7.41533 28.0003 6.89416 28.1839C6.37538 28.3651 5.79948 28.0583 5.61148 27.4905Z" fill="black"/>
<path d="M53.763 31.719C53.4108 31.6248 52.8873 31.5716 52.2043 31.5716H50.7217V40.0764L50.8788 39.9652L52.0972 39.093L52.14 39.0616V36.6551H52.6041C53.4632 36.6551 54.1628 36.4232 54.6745 35.969C55.1909 35.5099 55.4526 34.8841 55.4526 34.1061C55.4526 33.3789 55.2075 32.77 54.7268 32.2892C54.4508 32.0113 54.1295 31.8205 53.763 31.719ZM52.5279 35.4277H52.1376V32.8207H52.5755C53.694 32.8207 54.2604 33.2411 54.2604 34.082C54.2604 34.9783 53.6797 35.4277 52.5279 35.4277ZM61.6447 36.4498C62.1349 36.3096 62.5395 36.0414 62.8512 35.6452C63.1939 35.2127 63.3653 34.6836 63.3653 34.0844C63.3653 33.316 63.0892 32.683 62.5442 32.2119C62.0564 31.7915 61.2544 31.574 60.1669 31.574H58.6415V40.0788L58.7962 39.9676L60.0193 39.0954L60.0622 39.064V36.6286H60.1288L62.4086 39.9435L62.4633 40.0256L62.5466 39.9652L63.5247 39.2476L63.608 39.1872L63.5485 39.1051L61.6447 36.4498ZM60.0598 35.4277V35.3432V32.9415V32.8207H60.4977C61.6185 32.8207 62.1825 33.2411 62.1825 34.082C62.1825 34.9783 61.6043 35.4277 60.4501 35.4277H60.0598ZM40.3675 31.8229C39.8868 31.6562 39.2276 31.5716 38.4113 31.5716H36.617V39.9797H38.3923C39.2157 39.9797 39.863 39.9048 40.3199 39.7478C40.8053 39.5907 41.2813 39.3105 41.7263 38.9142C42.6092 38.1169 43.0637 37.0635 43.0637 35.7757C43.0637 34.4975 42.6306 33.4465 41.7786 32.6564C41.3551 32.2674 40.8839 31.9872 40.3675 31.8229ZM40.7649 37.8777C40.4841 38.1338 40.1652 38.3247 39.813 38.4407C39.4655 38.5566 39.0182 38.6122 38.4851 38.6122H38.0353V32.9391H38.4851C39.4917 32.9391 40.2628 33.1832 40.772 33.6591C41.3455 34.2003 41.6287 34.9083 41.6287 35.7732C41.6287 36.6358 41.3408 37.3413 40.7649 37.8777ZM31.4458 32.7845C31.9694 32.7845 32.4858 32.9367 32.9903 33.2363L33.0783 33.287L33.1259 33.2001L33.7185 32.1636L33.7684 32.0766L33.6828 32.0234C32.9927 31.6199 32.2668 31.4146 31.5315 31.4146C30.175 31.4146 29.0566 31.9292 28.2046 32.9512C27.5097 33.7896 27.1599 34.7488 27.1599 35.8143C27.1599 36.9982 27.5811 38.0323 28.4069 38.8731C29.2422 39.7067 30.2607 40.1295 31.4387 40.1295C32.2192 40.1295 32.9736 39.9217 33.6828 39.5134L33.7327 39.482V39.3974L33.7208 39.3733L33.1259 38.3271L33.0736 38.2353L32.9831 38.2957C32.8166 38.4044 32.6547 38.4914 32.5048 38.5542C32.2169 38.6919 31.8623 38.7572 31.4482 38.7572C30.6534 38.7572 29.9704 38.4696 29.4183 37.8994C28.8686 37.3317 28.5901 36.6237 28.5901 35.7926C28.5901 34.9518 28.8686 34.2318 29.4183 33.6543C29.968 33.0768 30.6486 32.7845 31.4458 32.7845ZM124.772 32.9415L124.798 32.9126L125.921 31.748L126.09 31.5716H121.29V39.9797H124.796L124.824 39.9507L125.924 38.7862L126.086 38.6146H122.709V36.0028H123.751L123.78 35.9714L124.92 34.8116L125.089 34.6352H122.711V32.9415H124.772ZM100.484 32.9415H102.341V40.0764L102.498 39.9652L103.716 39.093L103.759 39.0616V32.944H105.613V31.574H100.482V32.9415H100.484ZM70.464 31.4194C69.2765 31.4194 68.2437 31.8495 67.3989 32.6927C66.547 33.5383 66.1162 34.5628 66.1162 35.7394C66.1162 37.0755 66.5898 38.1773 67.5203 39.006C68.3627 39.7502 69.3336 40.1319 70.3974 40.1319C71.5968 40.1319 72.6367 39.7043 73.4863 38.8635C74.3335 38.0275 74.7642 36.9934 74.7642 35.7877C74.7642 34.5942 74.3382 33.5528 73.4934 32.7048C72.6558 31.8519 71.6372 31.4194 70.464 31.4194ZM72.4892 37.9019C71.9252 38.4745 71.2279 38.762 70.4117 38.762C69.6668 38.762 68.991 38.4769 68.4198 37.9139C67.8392 37.3534 67.5488 36.6286 67.5488 35.7515C67.5488 34.9228 67.832 34.2124 68.3889 33.6495C68.9457 33.0768 69.6406 32.7845 70.4474 32.7845C71.2589 32.7845 71.949 33.0768 72.4987 33.6495C73.0556 34.2173 73.334 34.9348 73.334 35.7757C73.334 36.6044 73.0484 37.322 72.4892 37.9019ZM134.565 32.6564C134.141 32.2674 133.665 31.9872 133.149 31.8229C132.668 31.6562 132.014 31.5716 131.193 31.5716H129.398V39.9797H131.171C131.997 39.9797 132.647 39.9048 133.104 39.7478C133.589 39.5907 134.063 39.3105 134.508 38.9142C135.393 38.1169 135.845 37.0635 135.845 35.7757C135.845 34.4975 135.414 33.4441 134.565 32.6564ZM133.549 37.8777C133.265 38.1338 132.944 38.3247 132.599 38.4407C132.247 38.5566 131.802 38.6122 131.266 38.6122H130.817V32.9391H131.266C132.275 32.9391 133.044 33.1832 133.558 33.6591C134.124 34.2003 134.412 34.9083 134.412 35.7732C134.412 36.6358 134.124 37.3413 133.549 37.8777ZM115.836 36.4498C116.324 36.3096 116.731 36.0414 117.043 35.6452C117.388 35.2127 117.554 34.6836 117.554 34.0844C117.554 33.316 117.278 32.683 116.733 32.2119C116.238 31.7915 115.443 31.574 114.356 31.574H112.826V40.0788L112.983 39.9676L114.206 39.0954L114.251 39.064V36.6286H114.318L116.593 39.9435L116.652 40.0256L116.736 39.9652L117.714 39.2476L117.792 39.1872L117.738 39.1051L115.836 36.4498ZM114.251 35.4277V32.8207H114.684C115.808 32.8207 116.369 33.2411 116.369 34.082C116.369 34.9783 115.793 35.4277 114.637 35.4277H114.251ZM96.6031 31.603L93.6308 34.6981V31.4798L93.4713 31.5958L92.2529 32.4656L92.2101 32.497V40.0764L92.3719 39.9652L93.5903 39.093L93.6308 39.0616V36.5271L93.7759 36.3821L96.615 39.9459L96.6697 40.0184L96.7482 39.9676L97.7929 39.2501L97.8834 39.1872L97.812 39.0978L94.7873 35.3987L98.3736 31.7528L98.5449 31.5764H96.634L96.6031 31.603ZM79.1382 32.468L79.0953 32.4994V36.9789C79.0953 37.6578 79.0239 38.1314 78.8859 38.3972C78.7622 38.646 78.548 38.762 78.2243 38.762C77.9888 38.762 77.7317 38.6702 77.4557 38.4817L77.3653 38.4213L77.3129 38.5131L76.7085 39.569L76.6609 39.656L76.7442 39.7091C77.2011 39.9846 77.6984 40.1295 78.2243 40.1295C78.9264 40.1295 79.4975 39.8686 79.9235 39.366C80.1424 39.1099 80.2947 38.7934 80.3899 38.4237C80.4756 38.1048 80.5232 37.6312 80.5232 36.9813V31.475L80.3614 31.5909L79.1382 32.468ZM87.8647 32.9415L87.8956 32.9126L89.0188 31.748L89.183 31.5716H84.3903V39.9797H87.8908L87.9242 39.9507L89.0188 38.7862L89.1807 38.6146H85.8086V36.0028H86.8438L86.8699 35.9714L88.0098 34.8116L88.1788 34.6352H85.8062V32.9415H87.8647Z" fill="white"/>
<path d="M138.551 34.355C137.751 34.355 137.104 33.6954 137.104 32.886C137.104 32.0669 137.754 31.417 138.551 31.417C139.357 31.417 140 32.0693 140 32.886C140 33.6954 139.357 34.355 138.551 34.355ZM138.551 31.6369C137.868 31.6369 137.323 32.1853 137.323 32.886C137.323 33.5722 137.868 34.1327 138.551 34.1327C139.234 34.1327 139.779 33.5722 139.779 32.886C139.781 32.1853 139.236 31.6369 138.551 31.6369ZM138.948 33.7316L138.517 33.0672H138.232V33.7316H138.001V32.0476H138.677C138.958 32.0476 139.217 32.2481 139.217 32.5598C139.217 32.9343 138.889 33.0575 138.794 33.0575L139.236 33.7292H138.948V33.7316ZM138.675 32.2554H138.232V32.8498H138.675C138.817 32.8498 138.974 32.7338 138.974 32.5598C138.974 32.3714 138.817 32.2554 138.675 32.2554Z" fill="white"/>
</svg>
