<svg width="171" height="46" viewBox="0 0 171 46" fill="none" xmlns="http://www.w3.org/2000/svg">
<path d="M131.97 41.7407C134.374 41.9207 136.766 42.1247 139.157 42.3406V0H131.97V41.7407ZM16.3693 26.0355L7.00593 0H0.177734V46C2.5694 45.6641 4.96106 45.3281 7.36468 45.0162V20.0005L15.6877 43.9844C18.3065 43.6844 20.9254 43.3965 23.5562 43.1205V0H16.3693V26.0355ZM30.4681 42.4606C37.093 41.8607 43.7419 41.3568 50.4266 40.9729V33.8701C46.1574 34.1221 41.9003 34.41 37.6551 34.746V23.9958C40.4414 23.9718 44.1126 23.8878 47.3652 23.9238V16.8211C44.7703 16.8091 40.5968 16.8571 37.6551 16.8931V7.17475H50.4266V0H30.4681V42.4606ZM55.0305 7.17475H62.5523V40.397C64.9439 40.301 67.3356 40.229 69.7392 40.169V7.17475H77.261V0H55.0305V7.17475ZM81.865 39.965H89.0519V23.5639H98.7979V16.4611H89.0519V7.17475H101.931V0H81.865V39.965ZM170.823 0H162.93L157.728 12.1059L153.053 0H145.28L153.639 21.6202L144.515 42.8326C147.038 43.0845 149.549 43.3485 152.072 43.6244L157.382 31.2906L162.631 44.8842C165.37 45.2321 168.096 45.6041 170.823 46H170.835L161.471 21.7762L170.823 0ZM113.722 0H106.535V40.325C113.064 40.5529 119.57 40.8769 126.051 41.3088V34.2061C121.949 33.9301 117.848 33.7021 113.722 33.5102V0Z" fill="#E50914"/>
</svg>
