<svg width="898" height="160" viewBox="0 0 898 160" fill="none" xmlns="http://www.w3.org/2000/svg">
<path d="M346.482 24.2398V3.02859H280.194V24.2398H294.279V68.8982H280.194V90.8029H346.482V68.8982H332.54V24.2398H346.482Z" fill="white"/>
<path d="M0 38.9944H32.331V24.2398H47.0856L47.0975 68.8982H34.1125V90.8029H99.3125V68.8982H86.4591V24.2518L102.039 24.2398V38.9944H134.358V3.02859H0V38.9944Z" fill="white"/>
<path d="M879.166 69.0178C879.166 69.0178 867.951 58.5795 867.245 57.9339C885.025 54.8969 896.515 43.1434 896.515 30.4812C896.515 15.4516 879.692 3.02859 856.879 3.02859H761.607V24.3594H775.728V69.0178H761.607V90.8029H828.744V69.0178H815.879V61.8198H843.415V90.8149H897.615V69.0297H879.166V69.0178ZM837.018 37.1531H815.879V27.6236H837.018C840.103 27.6236 842.016 30.2182 842.016 32.4063C842.016 34.9889 840.163 37.1531 837.018 37.1531Z" fill="white"/>
<path d="M628.696 24.2398H644.228V68.9699H628.685V90.8029H756.669V64.5818H722.33V68.9699H684.487L684.415 54.1077H712.513V32.3345H684.415V24.2398H722.342L722.33 29.1899H757.566V3.02859H628.685L628.696 24.2398Z" fill="white"/>
<path d="M256.842 69.0178C256.842 69.0178 245.627 58.5795 244.922 57.9339C262.701 54.8969 274.192 43.1434 274.192 30.4812C274.192 15.4516 257.357 3.02859 234.543 3.02859H139.272V24.3594H153.405V69.0178H139.272V90.8029H206.421V69.0178H193.555V61.8198H221.104V90.8149H275.304V69.0297H256.854L256.842 69.0178ZM214.683 37.1531H193.555V27.6236H214.683C217.768 27.6236 219.681 30.2182 219.681 32.4063C219.681 34.9889 217.828 37.1531 214.683 37.1531Z" fill="white"/>
<path d="M623.746 77.9973V36.3759H547.678V56.0447H583.261C583.261 56.0447 584.313 59.4524 581.133 62.1785C578.658 64.3068 571.519 65.6579 566.677 66.0405C561.404 66.459 552.293 66.4949 544.127 62.9079C535.948 59.3328 529.444 54.0001 529.97 43.9565C530.52 33.4106 540.862 26.1768 550.356 24.7659C568.1 22.1354 577.33 24.9572 580.14 27.217C582.328 28.9627 583.273 31.4258 583.273 31.4258H623.711V4.15252C623.711 4.15252 598.291 1.48617 587.876 0.900295C572.763 0.0513675 552.831 -0.630166 539.32 1.58183C519.376 4.84601 488.863 15.344 487.009 41.5532C485.036 69.5558 509.416 78.2364 525.091 82.5647C540.767 86.8811 550.021 87.1202 557.327 87.6344C560.663 87.8855 575.92 87.8974 583.871 93.7682C597.119 103.549 593.855 126.805 585.712 135.951C579.674 142.731 570.551 149.355 568.781 150.945C567 152.535 563.987 155.238 566.258 158.334C568.542 161.431 572.787 159.578 579.507 155.776C586.226 151.962 600.084 142.372 609.96 128.18C619.191 114.92 621.821 98.8976 621.821 98.8976C615.245 97.3552 611.072 91.9268 612.555 85.5061C613.488 81.4886 617.935 77.9973 623.746 77.9973ZM597.705 81.8114C592.073 81.8114 587.494 77.244 587.494 71.6124C587.494 65.9807 592.061 61.4013 597.705 61.4013C603.348 61.4013 607.916 65.9688 607.916 71.6124C607.916 77.2559 603.348 81.8114 597.705 81.8114Z" fill="white"/>
<path d="M481.904 36.4118H405.823V56.0806H441.406C441.406 56.0806 442.459 59.4882 439.278 62.2024C436.803 64.3427 429.665 65.6818 424.822 66.0644C419.549 66.4829 410.438 66.5188 402.26 62.9318C394.082 59.3567 387.577 54.036 388.103 43.9804C388.653 33.4226 399.008 26.2007 408.49 24.7898C426.233 22.1593 435.476 24.9811 438.286 27.241C440.474 28.9866 441.406 31.4617 441.406 31.4617H481.856V4.18839C481.856 4.18839 456.436 1.51009 446.022 0.936165C430.92 0.0872375 410.977 -0.606252 397.465 1.60574C377.522 4.86993 347.02 15.3799 345.167 41.589C343.194 69.5917 367.562 78.2723 383.237 82.6006C398.912 86.917 408.179 87.1561 415.472 87.6822C418.82 87.9333 434.065 87.9452 442.016 93.816C455.264 103.597 452 126.84 443.857 135.987C437.819 142.767 428.708 149.391 426.927 150.981C425.145 152.571 422.132 155.274 424.404 158.37C426.676 161.467 430.944 159.614 437.652 155.812C444.372 152.009 458.229 142.42 468.106 128.215C477.324 114.955 479.955 98.9335 479.955 98.9335C473.391 97.3911 469.206 91.9747 470.7 85.5419C471.633 81.5245 476.081 78.0451 481.904 78.0451V36.4118ZM455.85 81.8593C450.218 81.8593 445.651 77.2798 445.651 71.6482C445.651 66.0166 450.218 61.4491 455.85 61.4491C461.482 61.4491 466.061 66.0166 466.061 71.6482C466.061 77.2798 461.494 81.8593 455.85 81.8593Z" fill="white"/>
</svg>
