<svg width="1920" height="23" viewBox="0 0 1920 23" fill="none" xmlns="http://www.w3.org/2000/svg">
<path d="M1581.58 10L1580.24 11.6506L1582.35 14.105L1578.13 14.105L1580.24 11.6506L1578.91 10H1576.47L1570.73 16.7925L1570.71 16.7769V16.7925L1556.44 0.00557518L1548.35 9.43483L1174.02 9.46589L1172.18 7.33772L1167.68 12.738L1165 9.48142L1115.92 9.45037L1112.32 13.7944L1090.99 13.7944L1082.96 4.44278H1079.79L1059.97 4.55153L1056.07 0L1050.2 6.83505L1047.23 10.3147L483.6 10.3147L481.507 12.7536L484.999 16.8235L478.015 16.8235L481.507 12.7536L479.415 10.3147L387.062 10.3147L381.251 16.8235L381.238 16.808L381.225 16.8235L371.095 4.45831H362.898L358.047 10.1283L0 10.1283V23L1920 23V10L1581.58 10ZM1079.87 8.12437H1080.98V9.39818H1079.87V8.12437ZM1079.87 10.6875H1080.98V11.9613H1079.87V10.6875ZM1071.35 8.12437H1072.46V11.9613H1071.35V8.12437ZM1067.14 8.12437H1068.25V9.39818H1067.14V8.12437ZM421.53 12.9555L424.822 12.9555V16.7925H421.53V12.9555ZM410.534 12.9555H411.627V16.7925H410.534V12.9555ZM402.843 12.9555H403.936V16.7925H402.843V12.9555ZM401.177 12.9555H402.283V16.7925H401.177V12.9555Z" fill="#FCEE0A"/>
</svg>
